# xmcd
#
# Track frame offsets: 
#        150
#        12803
#        25100
#        37342
#        49792
#        62286
#        75856
#        88437
#        101661
#        114906
#        127653
#        140297
#        152952
#        166946
#        180835
#        195665
#        210018
#        224634
#        238432
#        252727
#        264433
#        276233
#        288177
#        300389
#        312721
#
# Disc length: 4331 seconds
#
# Revision: 1
# Processed by: cddbd v1.5.2PL0 Copyright (c) Steve Scherf et al.
# Submitted via: ExactAudioCopy v0.95a5
#
DISCID=5910e919
DTITLE=Blind Boy Fuller - Volume 2 - Disc B
DYEAR=2006
DGENRE=Blues
TTITLE0=Blind Boy Fuller - I Don't Want No Skinny Woman
TTITLE1=Blind Boy Fuller - Bus Rider Blues
TTITLE2=Blind Boy Fuller - You Got To Have Your Dollar
TTITLE3=Blind Boy Fuller - Lost Lover Blues
TTITLE4=Blind Boy Fuller - Thousand Woman Blues
TTITLE5=Blind Boy Fuller - Bye, Bye Baby
TTITLE6=Blind Boy Fuller - When You Are Gone
TTITLE7=Blind Boy Fuller - No Stranger Now
TTITLE8=Blind Boy Fuller - Must Have Been My Jesus
TTITLE9=Blind Boy Fuller - Jesus Is A Holy Man
TTITLE10=Blind Boy Fuller - Precious Lord
TTITLE11=Blind Boy Fuller - Night Rambling Woman
TTITLE12=Bull City Red - Now I'm Talking About You
TTITLE13=Bull City Red - I Saw The Light
TTITLE14=Bull City Red - Richmond Blues
TTITLE15=Bull City Red - I Won't Be Dogged Around
TTITLE16=Bull City Red - Pick And Shovel Blues
TTITLE17=Bull City Red - Black Woman and Poison Blues
TTITLE18=Bull City Red - Mississippi River
TTITLE19=Bull City Red - Have You Decided (Which Way To Go)
TTITLE20=Bull City Red - I See The Sign Of Judgement
TTITLE21=Bull City Red - Everybody Wants To Know How I Die
TTITLE22=Bull City Red - I Feel Like Shoutin'
TTITLE23=Bull City Red - Jesus Touched Me
TTITLE24=Bull City Red - Talkin' With Jesus
EXTD=
EXTT0=
EXTT1=
EXTT2=
EXTT3=
EXTT4=
EXTT5=
EXTT6=
EXTT7=
EXTT8=
EXTT9=
EXTT10=
EXTT11=
EXTT12=
EXTT13=
EXTT14=
EXTT15=
EXTT16=
EXTT17=
EXTT18=
EXTT19=
EXTT20=
EXTT21=
EXTT22=
EXTT23=
EXTT24=
PLAYORDER=
